{
  "source": "C:\\Users\\Peter\\Desktop\\stuff\\MIUN\\quantitative_research\\video_compression\\videos\\BVI-HD\\FishAndRock_1920x1080_30fps.mp4",
  "output": "C:\\Users\\Peter\\Desktop\\stuff\\MIUN\\quantitative_research\\video_compression\\compressed_videos\\BVI-HD\\vp9\\12\\FishAndRock_1920x1080_30fps_vp9.webm",
  "codec": "vp9",
  "ok": "Input #0, mov,mp4,m4a,3gp,3g2,mj2, from 'C:\\Users\\Peter\\Desktop\\stuff\\MIUN\\quantitative_research\\video_compression\\videos\\BVI-HD\\FishAndRock_1920x1080_30fps.mp4':\n  Metadata:\n    major_brand     : isom\n    minor_version   : 512\n    compatible_brands: isomiso2avc1mp41\n    encoder         : Lavf54.28.101\n  Duration: 00:00:05.00, start: 0.000000, bitrate: 251564 kb/s\n  Stream #0:0[0x1](und): Video: h264 (High 4:4:4 Predictive) (avc1 / 0x31637661), yuv420p(progressive), 1920x1080, 251561 kb/s, 30 fps, 30 tbr, 30 tbn (default)\n    Metadata:\n      handler_name    : VideoHandler\n      vendor_id       : [0][0][0][0]\n[out#0/webm @ 00000168ad0b9380] Codec AVOption b:a (set bitrate (in bits/s)) has not been used for any stream. The most likely reason is either wrong type (e.g. a video option with no video streams) or that it is a private option of some decoder which was not actually used for any stream.\nStream mapping:\n  Stream #0:0 -> #0:0 (h264 (native) -> vp9 (libvpx-vp9))\nPress [q] to stop, [?] for help\n[libvpx-vp9 @ 00000168adb40340] v1.15.2-100-g40561f514\nOutput #0, webm, to 'C:\\Users\\Peter\\Desktop\\stuff\\MIUN\\quantitative_research\\video_compression\\compressed_videos\\BVI-HD\\vp9\\12\\FishAndRock_1920x1080_30fps_vp9.webm':\n  Metadata:\n    major_brand     : isom\n    minor_version   : 512\n    compatible_brands: isomiso2avc1mp41\n    encoder         : Lavf62.3.100\n  Stream #0:0(und): Video: vp9, yuv420p(tv, progressive), 1920x1080, q=2-31, 12000 kb/s, 30 fps, 1k tbn (default)\n    Metadata:\n      encoder         : Lavc62.11.100 libvpx-vp9\n      handler_name    : VideoHandler\n      vendor_id       : [0][0][0][0]\n    Side data:\n      cpb: bitrate max/min/avg: 0/0/0 buffer size: 12000000 vbv_delay: N/A\nframe=    0 fps=0.0 q=0.0 size=       0KiB time=N/A bitrate=N/A speed=N/A elapsed=0:00:00.52    \nframe=    1 fps=1.0 q=12.0 size=       1KiB time=00:00:00.03 bitrate= 152.2kbits/s speed=0.0318x elapsed=0:00:01.04    \nframe=    5 fps=3.1 q=26.0 size=       1KiB time=00:00:00.16 bitrate=  30.4kbits/s speed=0.103x elapsed=0:00:01.61    \nframe=    9 fps=4.1 q=26.0 size=       1KiB time=00:00:00.30 bitrate=  16.9kbits/s speed=0.137x elapsed=0:00:02.19    \nframe=   12 fps=4.4 q=26.0 size=       1KiB time=00:00:00.40 bitrate=  12.7kbits/s speed=0.147x elapsed=0:00:02.72    \nframe=   16 fps=4.9 q=25.0 size=       1KiB time=00:00:00.53 bitrate=   9.5kbits/s speed=0.164x elapsed=0:00:03.25    \nframe=   20 fps=5.2 q=25.0 size=       1KiB time=00:00:00.66 bitrate=   7.6kbits/s speed=0.175x elapsed=0:00:03.81    \nframe=   22 fps=5.1 q=25.0 size=       1KiB time=00:00:00.73 bitrate=   6.9kbits/s speed=0.169x elapsed=0:00:04.34    \nframe=   25 fps=5.1 q=22.0 size=       1KiB time=00:00:00.83 bitrate=   6.1kbits/s speed=0.171x elapsed=0:00:04.87    \nframe=   29 fps=5.4 q=22.0 size=       1KiB time=00:00:00.96 bitrate=   5.2kbits/s speed=0.179x elapsed=0:00:05.39    \nframe=   31 fps=5.2 q=8.0 size=       1KiB time=00:00:01.03 bitrate=   4.9kbits/s speed=0.173x elapsed=0:00:05.97    \nframe=   34 fps=5.2 q=18.0 size=       1KiB time=00:00:01.13 bitrate=   4.5kbits/s speed=0.174x elapsed=0:00:06.50    \nframe=   38 fps=5.4 q=21.0 size=       1KiB time=00:00:01.26 bitrate=   4.0kbits/s speed=0.18x elapsed=0:00:07.02    \nframe=   41 fps=5.4 q=11.0 size=       1KiB time=00:00:01.36 bitrate=   3.7kbits/s speed=0.18x elapsed=0:00:07.59    \nframe=   44 fps=5.4 q=19.0 size=       1KiB time=00:00:01.46 bitrate=   3.5kbits/s speed=0.18x elapsed=0:00:08.15    \nframe=   46 fps=5.3 q=19.0 size=       1KiB time=00:00:01.53 bitrate=   3.3kbits/s speed=0.176x elapsed=0:00:08.70    \nframe=   49 fps=5.3 q=18.0 size=       1KiB time=00:00:01.63 bitrate=   3.1kbits/s speed=0.177x elapsed=0:00:09.22    \nframe=   52 fps=5.3 q=21.0 size=       1KiB time=00:00:01.73 bitrate=   2.9kbits/s speed=0.178x elapsed=0:00:09.75    \nframe=   55 fps=5.3 q=20.0 size=       1KiB time=00:00:01.83 bitrate=   2.8kbits/s speed=0.177x elapsed=0:00:10.33    \nframe=   58 fps=5.3 q=18.0 size=       1KiB time=00:00:01.93 bitrate=   2.6kbits/s speed=0.178x elapsed=0:00:10.86    \nframe=   60 fps=5.2 q=21.0 size=       1KiB time=00:00:02.00 bitrate=   2.5kbits/s speed=0.175x elapsed=0:00:11.44    \nframe=   64 fps=5.3 q=20.0 size=       1KiB time=00:00:02.13 bitrate=   2.4kbits/s speed=0.178x elapsed=0:00:11.96    \nframe=   67 fps=5.4 q=21.0 size=       1KiB time=00:00:02.23 bitrate=   2.3kbits/s speed=0.179x elapsed=0:00:12.50    \nframe=   70 fps=5.4 q=19.0 size=       1KiB time=00:00:02.33 bitrate=   2.2kbits/s speed=0.179x elapsed=0:00:13.02    \nframe=   73 fps=5.4 q=15.0 size=       1KiB time=00:00:02.43 bitrate=   2.1kbits/s speed=0.18x elapsed=0:00:13.54    \nframe=   76 fps=5.4 q=19.0 size=       1KiB time=00:00:02.53 bitrate=   2.0kbits/s speed=0.179x elapsed=0:00:14.17    \nframe=   79 fps=5.3 q=19.0 size=       1KiB time=00:00:02.63 bitrate=   1.9kbits/s speed=0.178x elapsed=0:00:14.78    \nframe=   82 fps=5.3 q=19.0 size=       1KiB time=00:00:02.73 bitrate=   1.9kbits/s speed=0.178x elapsed=0:00:15.32    \nframe=   85 fps=5.4 q=18.0 size=       1KiB time=00:00:02.83 bitrate=   1.8kbits/s speed=0.178x elapsed=0:00:15.87    \nframe=   88 fps=5.4 q=20.0 size=       1KiB time=00:00:02.93 bitrate=   1.7kbits/s speed=0.179x elapsed=0:00:16.40    \nframe=   91 fps=5.4 q=11.0 size=       1KiB time=00:00:03.03 bitrate=   1.7kbits/s speed=0.179x elapsed=0:00:16.95    \nframe=   94 fps=5.4 q=21.0 size=       1KiB time=00:00:03.13 bitrate=   1.6kbits/s speed=0.179x elapsed=0:00:17.49    \nframe=   96 fps=5.3 q=20.0 size=       1KiB time=00:00:03.20 bitrate=   1.6kbits/s speed=0.178x elapsed=0:00:17.99    \nframe=   99 fps=5.3 q=18.0 size=       1KiB time=00:00:03.30 bitrate=   1.5kbits/s speed=0.178x elapsed=0:00:18.51    \nframe=  102 fps=5.4 q=21.0 size=       1KiB time=00:00:03.40 bitrate=   1.5kbits/s speed=0.178x elapsed=0:00:19.05    \nframe=  105 fps=5.4 q=18.0 size=       1KiB time=00:00:03.50 bitrate=   1.4kbits/s speed=0.179x elapsed=0:00:19.60    \nframe=  108 fps=5.4 q=24.0 size=       1KiB time=00:00:03.60 bitrate=   1.4kbits/s speed=0.179x elapsed=0:00:20.13    \nframe=  111 fps=5.4 q=19.0 size=       1KiB time=00:00:03.70 bitrate=   1.4kbits/s speed=0.179x elapsed=0:00:20.68    \nframe=  114 fps=5.4 q=21.0 size=       1KiB time=00:00:03.80 bitrate=   1.3kbits/s speed=0.179x elapsed=0:00:21.22    \nframe=  117 fps=5.4 q=18.0 size=    5120KiB time=00:00:03.90 bitrate=10754.6kbits/s speed=0.179x elapsed=0:00:21.77    \nframe=  120 fps=5.4 q=22.0 size=    5120KiB time=00:00:04.00 bitrate=10485.8kbits/s speed=0.179x elapsed=0:00:22.33    \nframe=  122 fps=5.3 q=21.0 size=    5120KiB time=00:00:04.06 bitrate=10313.9kbits/s speed=0.178x elapsed=0:00:22.90    \nframe=  125 fps=5.3 q=23.0 size=    5120KiB time=00:00:04.16 bitrate=10066.3kbits/s speed=0.178x elapsed=0:00:23.42    \nframe=  126 fps=5.3 q=23.0 size=    5120KiB time=00:00:04.20 bitrate=9986.4kbits/s speed=0.175x elapsed=0:00:23.96    \nframe=  126 fps=5.1 q=23.0 size=    5120KiB time=00:00:04.20 bitrate=9986.4kbits/s speed=0.171x elapsed=0:00:24.56    \nframe=  126 fps=5.0 q=23.0 size=    5120KiB time=00:00:04.20 bitrate=9986.4kbits/s speed=0.167x elapsed=0:00:25.11    \nframe=  126 fps=4.9 q=23.0 size=    5120KiB time=00:00:04.20 bitrate=9986.4kbits/s speed=0.163x elapsed=0:00:25.71    \nframe=  126 fps=4.8 q=23.0 size=    5120KiB time=00:00:04.20 bitrate=9986.4kbits/s speed=0.159x elapsed=0:00:26.37    \nframe=  126 fps=4.6 q=23.0 size=    5120KiB time=00:00:04.20 bitrate=9986.4kbits/s speed=0.155x elapsed=0:00:27.14    \nframe=  126 fps=4.5 q=23.0 size=    5120KiB time=00:00:04.20 bitrate=9986.4kbits/s speed=0.151x elapsed=0:00:27.74    \nframe=  126 fps=4.4 q=23.0 size=    5120KiB time=00:00:04.20 bitrate=9986.4kbits/s speed=0.148x elapsed=0:00:28.43    \nframe=  126 fps=4.3 q=23.0 size=    5120KiB time=00:00:04.20 bitrate=9986.4kbits/s speed=0.145x elapsed=0:00:28.98    \nframe=  126 fps=4.3 q=23.0 size=    5120KiB time=00:00:04.20 bitrate=9986.4kbits/s speed=0.142x elapsed=0:00:29.52    \nframe=  126 fps=4.2 q=23.0 size=    5120KiB time=00:00:04.20 bitrate=9986.4kbits/s speed=0.14x elapsed=0:00:30.07    \nframe=  126 fps=4.1 q=23.0 size=    5120KiB time=00:00:04.20 bitrate=9986.4kbits/s speed=0.137x elapsed=0:00:30.62    \n[out#0/webm @ 00000168ad0b9380] video:7244KiB audio:0KiB subtitle:0KiB other streams:0KiB global headers:0KiB muxing overhead: 0.025600%\nframe=  150 fps=4.8 q=22.0 Lsize=    7246KiB time=00:00:05.00 bitrate=11871.7kbits/s speed=0.161x elapsed=0:00:31.03    \n",
  "seconds": 31.568950414657593,
  "probe_out": {}
}